Coordinates
version=1
nRows=15
nColumns=42
inDegrees=yes

Units are S.I. units (second, meters, Newtons, ...)
If the header above contains a line with 'inDegrees', this indicates whether rotational values are in degrees (yes) or radians (no).

endheader
time	pelvis_tilt	pelvis_list	pelvis_rotation	pelvis_tx	pelvis_ty	pelvis_tz	hip_flexion_r	hip_adduction_r	hip_rotation_r	knee_angle_r	knee_adduction_r	knee_angle_r_beta	ankle_angle_r	subtalar_angle_r	mtp_angle_r	hip_flexion_l	hip_adduction_l	hip_rotation_l	knee_angle_l	knee_adduction_l	knee_angle_l_beta	ankle_angle_l	subtalar_angle_l	mtp_angle_l	lumbar_extension	lumbar_bending	lumbar_rotation	arm_flex_r	arm_add_r	arm_rot_r	elbow_flex_r	pro_sup_r	wrist_flex_r	wrist_dev_r	arm_flex_l	arm_add_l	arm_rot_l	elbow_flex_l	pro_sup_l	wrist_flex_l	wrist_dev_l
      0.20000000	      8.34630235	     -2.87928581	     -0.08815302	     -0.74125700	      0.79893112	     -0.35047450	     26.94689886	      1.93367046	    -24.78264197	     36.52838069	     -8.84732512	      0.63754051	     10.96131521	      8.88994093	     -8.31868598	    -22.11141991	    -10.25395731	    -27.97224404	     37.75468415	     -3.99402178	      0.65894355	     11.41857716	     19.53463525	     -8.31868598	    -21.63757125	      5.83630068	     -5.04616468	      2.12651100	    -15.30666583	     -5.97234510	     32.07605052	     90.00000001	      0.00000000	      0.00000000	      4.71374561	     -9.39324673	    -10.68685254	     65.95797805	     90.00000001	      0.00000000	      0.00000000
      0.21000000	      8.32511400	     -3.15247616	     -0.14034811	     -0.72542038	      0.79950648	     -0.34853338	     26.50111235	      2.29314839	    -24.73608190	     37.93926742	     -9.00976245	      0.66216513	     11.68714701	      8.72853306	     -8.28883715	    -20.79547057	    -11.06067703	    -26.62892408	     41.38767329	     -4.50318674	      0.72235117	      8.60271669	     16.40290578	     -8.28883715	    -21.68588236	      6.14240343	     -4.50529732	      2.15430377	    -15.15691237	     -6.30463529	     32.32977157	     90.00000001	      0.00000000	      0.00000000	      4.38974196	     -9.32055534	    -10.63481294	     65.27949883	     90.00000001	      0.00000000	      0.00000000
      0.22000000	      8.25762972	     -3.35530264	     -0.21982455	     -0.71003172	      0.80051773	     -0.34648403	     25.86159509	      2.65684032	    -24.60533924	     38.90116134	     -9.09807687	      0.67895335	     12.61294310	      8.55305793	     -8.24494450	    -19.13562818	    -11.62911178	    -24.17278002	     45.22453473	     -4.43974306	      0.78931703	      5.97745016	     11.59660947	     -8.24494450	    -21.74533753	      6.32821143	     -3.96074262	      2.32239702	    -14.95212678	     -6.47517432	     32.48654751	     90.00000001	      0.00000000	      0.00000000	      4.12112613	     -9.21944587	    -10.80384474	     64.31646279	     90.00000001	      0.00000000	      0.00000000
      0.23000000	      8.24192725	     -3.66405959	     -0.26077820	     -0.69501882	      0.80169925	     -0.34452556	     24.94921966	      2.97350490	    -24.84673703	     39.53960709	     -9.00389893	      0.69009633	     13.50282454	      8.65974100	     -8.23781683	    -17.12476099	    -12.44124393	    -22.85506970	     49.32392823	     -5.01080567	      0.86086495	      4.88467078	     10.34424044	     -8.23781683	    -21.92902176	      6.62226223	     -3.43240583	      2.64936119	    -14.80561236	     -6.41299289	     32.62644027	     90.00000001	      0.00000000	      0.00000000	      3.75046979	     -9.20858437	    -10.88550680	     63.85773228	     90.00000001	      0.00000000	      0.00000000
      0.24000000	      7.97889140	     -3.82280864	     -0.30820013	     -0.68023402	      0.80317812	     -0.34267298	     24.22501395	      3.19792286	    -25.92994404	     39.76084250	     -9.60072854	      0.69395762	     15.05256189	     10.10720539	     -8.18181380	    -14.63587834	    -12.73770646	    -19.36428638	     53.44014442	     -4.21166199	      0.93270647	      2.20162927	      2.45114117	     -8.18181380	    -21.81192716	      6.77724122	     -2.89810081	      2.89856017	    -14.74506974	     -6.12724286	     32.71978037	     90.00000001	      0.00000000	      0.00000000	      3.48980920	     -9.01734679	    -11.17748920	     62.12502280	     90.00000001	      0.00000000	      0.00000000
      0.25000000	      7.82265394	     -4.02925777	     -0.26619304	     -0.66568494	      0.80490616	     -0.34095781	     23.18745304	      3.35609015	    -27.21337484	     39.69138421	    -10.00686167	      0.69274534	     16.40344722	     11.67025981	     -8.13931765	    -11.98574044	    -13.17319737	    -16.85174903	     57.43275867	     -3.88541524	      1.00239074	      1.02245286	     -2.09970874	     -8.13931765	    -21.84773653	      6.97020458	     -2.39965391	      3.24441285	    -14.67706648	     -5.80453353	     32.82485121	     90.00000001	      0.00000000	      0.00000000	      3.18611508	     -8.94049500	    -11.35870989	     60.83129133	     90.00000001	      0.00000000	      0.00000000
      0.26000000	      7.64493880	     -4.16658630	     -0.15484237	     -0.65130191	      0.80688305	     -0.33940835	     22.02869273	      3.42139726	    -28.57134647	     39.34916045	    -10.36342456	      0.68677241	     17.74405411	     13.68064609	     -8.09397998	     -9.12976200	    -13.46737934	    -14.32281674	     61.13487119	     -3.41812072	      1.06700479	      0.27135735	     -6.34482786	     -8.09397998	    -21.85456498	      7.08627761	     -1.96929884	      3.59722230	    -14.62241111	     -5.39143706	     32.95090550	     90.00000001	      0.00000000	      0.00000000	      2.82990284	     -8.88806720	    -11.56023600	     59.52698370	     90.00000001	      0.00000000	      0.00000000
      0.27000000	      7.49251547	     -4.25160601	      0.01798328	     -0.63702539	      0.80911735	     -0.33802844	     20.72740601	      3.46160143	    -29.80598317	     38.79948742	    -10.62010380	      0.67717880	     18.96465589	     15.45039498	     -8.05288530	     -6.16907517	    -13.63931861	    -12.10429471	     64.42425062	     -3.06873281	      1.12441529	      0.09002795	     -9.91589753	     -8.05288530	    -21.87640502	      7.14540404	     -1.56703771	      3.94881712	    -14.58054057	     -4.96920462	     33.09786496	     90.00000001	      0.00000000	      0.00000000	      2.48959608	     -8.85431200	    -11.75286676	     58.10264281	     90.00000001	      0.00000000	      0.00000000
      0.28000000	      7.35989722	     -4.25833604	      0.23816993	     -0.62281470	      0.81155911	     -0.33680767	     19.30956791	      3.46713434	    -30.77585686	     38.09370217	    -10.72506569	      0.66486053	     20.06991440	     16.96872557	     -8.01717942	     -3.15428509	    -13.64319904	    -10.18803424	     67.21165667	     -2.84350197	      1.17306470	      0.44946825	    -12.65924984	     -8.01717942	    -21.90130018	      7.11091642	     -1.19021370	      4.30498941	    -14.54053606	     -4.55584641	     33.25136220	     90.00000001	      0.00000000	      0.00000000	      2.14607112	     -8.81867438	    -11.96781639	     56.64534416	     90.00000001	      0.00000000	      0.00000000
      0.29000000	      7.25052746	     -4.16919814	      0.46818108	     -0.60865268	      0.81420395	     -0.33571838	     17.79767994	      3.43677003	    -31.45003547	     37.26823246	    -10.70241933	      0.65045336	     21.04309047	     18.21568060	     -7.98599875	     -0.15743705	    -13.44245960	     -8.61885055	     69.43178040	     -2.76420768	      1.21181317	      1.29165387	    -14.51347720	     -7.98599875	    -21.93145863	      6.96519121	     -0.83755689	      4.65047168	    -14.53363712	     -4.16449611	     33.43714867	     90.00000001	      0.00000000	      0.00000000	      1.76489074	     -8.80118661	    -12.23431725	     55.15406171	     90.00000001	      0.00000000	      0.00000000
      0.30000000	      7.21823676	     -3.93033883	      0.71046581	     -0.59451388	      0.81710046	     -0.33478900	     16.07959470	      3.30888181	    -31.48406251	     36.32876081	    -10.31508396	      0.63405649	     21.47137322	     18.28739970	     -7.97737078	      2.73587132	    -12.94691334	     -7.90189322	     70.97840826	     -3.37085502	      1.23880692	      2.41768837	    -14.84250436	     -7.97737078	    -22.04611592	      6.62786074	     -0.51554718	      4.98331575	    -14.44008085	     -4.05525640	     33.73459735	     90.00000001	      0.00000000	      0.00000000	      1.10962162	     -8.88712891	    -12.33985169	     54.50615297	     90.00000001	      0.00000000	      0.00000000
      0.31000000	      7.11335665	     -3.66390796	      0.86896122	     -0.58031896	      0.81982784	     -0.33378448	     14.54440680	      3.10406876	    -32.46011702	     35.36098684	    -10.49045818	      0.61716565	     22.68933505	     20.77617143	     -7.92873206	      5.55217085	    -12.38666927	     -6.52501533	     72.07007815	     -2.98129868	      1.25786016	      3.76090785	    -16.25203271	     -7.92873206	    -22.00950953	      6.24252081	     -0.10423034	      5.28025713	    -14.56187593	     -3.24453115	     33.96003001	     90.00000001	      0.00000000	      0.00000000	      0.99304005	     -8.68710066	    -13.20044672	     52.13975044	     90.00000001	      0.00000000	      0.00000000
      0.32000000	      7.05014413	     -3.26757428	      0.99710675	     -0.56616081	      0.82269617	     -0.33283779	     12.79620889	      2.89091135	    -32.36417776	     34.25371918	    -10.10952283	      0.59784018	     23.03504942	     20.79243157	     -7.92069651	      8.21375878	    -11.55078890	     -6.08467725	     72.46981812	     -3.36644841	      1.26483693	      4.94643544	    -16.28440590	     -7.92069651	    -22.04024187	      5.67512426	      0.26686904	      5.61295898	    -14.49577091	     -3.13685259	     34.28069699	     90.00000001	      0.00000000	      0.00000000	      0.24685577	     -8.81997235	    -13.35228663	     51.43374217	     90.00000001	      0.00000000	      0.00000000
      0.33000000	      7.03795108	     -2.83798921	      0.99055635	     -0.55196157	      0.82544681	     -0.33189284	     11.05456009	      2.48593634	    -33.06130499	     33.17114886	    -10.01270454	      0.57894576	     23.98613273	     22.98187870	     -7.89175084	     10.58069761	    -10.67760219	     -5.39935083	     72.34299357	     -3.11559774	      1.26262343	      6.38536854	    -16.51715219	     -7.89175084	    -22.08397513	      5.05699770	      0.83818919	      5.88126178	    -14.65853330	     -2.55404949	     34.64012311	     90.00000001	      0.00000000	      0.00000000	      0.19800182	     -8.67454969	    -14.31253458	     48.98231623	     90.00000001	      0.00000000	      0.00000000
      0.34000000	      6.89317704	     -2.36960859	      0.90613115	     -0.53780447	      0.82791845	     -0.33091257	      9.39815188	      2.12158547	    -33.03971761	     32.06645349	     -9.57718284	      0.55966519	     24.08510027	     22.83613955	     -7.88583501	     12.95935242	     -9.74731788	     -5.37787767	     71.67459630	     -3.26977092	      1.25095770	      7.07283760	    -16.09112860	     -7.88583501	    -21.99198688	      4.35337825	      1.44933433	      6.14297565	    -14.76335002	     -2.50810412	     34.94104772	     90.00000001	      0.00000000	      0.00000000	     -0.67621290	     -8.75229961	    -14.47475136	     48.53183171	     90.00000001	      0.00000000	      0.00000000
